<svg width="316" height="293" viewBox="0 0 316 293" fill="none" xmlns="http://www.w3.org/2000/svg">
<path d="M158.031 24.4746C176.562 8.19885 200.699 -0.22959 225.334 0.972314C249.968 2.17422 273.17 12.9122 290.029 30.9146C306.888 48.917 316.083 72.7718 315.669 97.4326C315.254 122.093 305.263 145.626 287.808 163.051L208.127 242.733L158 292.829L46.9801 181.824L28.2226 163.036C10.7732 145.608 0.787299 122.075 0.377077 97.4164C-0.0331443 72.7575 9.16451 48.906 26.0246 30.9069C42.8846 12.9078 66.0848 2.17266 90.7179 0.972219C115.351 -0.228225 139.5 8.20015 158.031 24.4746Z" fill="#DDEEFF"/>
</svg>
