<svg width="269" height="67" viewBox="0 0 269 67" fill="none" xmlns="http://www.w3.org/2000/svg">
<path fill-rule="evenodd" clip-rule="evenodd" d="M101.083 33.4999C101.083 15.0444 116.044 0.083252 134.5 0.083252C152.956 0.083252 167.917 15.0444 167.917 33.4999C167.917 51.9554 152.956 66.9166 134.5 66.9166C116.044 66.9166 101.083 51.9554 101.083 33.4999Z" fill="#DDEEFF"/>
<path fill-rule="evenodd" clip-rule="evenodd" d="M0.833374 33.4999C0.833374 15.0444 15.7945 0.083252 34.25 0.083252C52.7056 0.083252 67.6667 15.0444 67.6667 33.4999C67.6667 51.9554 52.7056 66.9166 34.25 66.9166C15.7945 66.9166 0.833374 51.9554 0.833374 33.4999Z" fill="#DDEEFF"/>
<path fill-rule="evenodd" clip-rule="evenodd" d="M201.333 33.4999C201.333 15.0444 216.295 0.083252 234.75 0.083252C253.206 0.083252 268.167 15.0444 268.167 33.4999C268.167 51.9554 253.206 66.9166 234.75 66.9166C216.295 66.9166 201.333 51.9554 201.333 33.4999Z" fill="#DDEEFF"/>
</svg>
