<svg width="480" height="320" viewBox="0 0 480 320" fill="none" xmlns="http://www.w3.org/2000/svg">
<path d="M240 224C275.346 224 304 195.346 304 160C304 124.654 275.346 96 240 96C204.654 96 176 124.654 176 160C176 195.346 204.654 224 240 224Z" fill="#DDEEFF"/>
<path d="M378.82 45.18C335.1 15.2 288.31 0 239.76 0C196.07 0 153.48 13 113.17 38.48C72.52 64.23 32.67 111 0 160C26.42 204 62.56 249.24 100.2 275.18C143.38 304.92 190.33 320 239.76 320C288.76 320 335.61 304.93 379.06 275.21C417.31 249 453.71 203.82 480 160C453.62 116.57 417.1 71.44 378.82 45.18ZM240 256C221.013 256 202.452 250.37 186.665 239.821C170.878 229.272 158.574 214.279 151.308 196.738C144.042 179.196 142.14 159.894 145.845 141.271C149.549 122.649 158.692 105.544 172.118 92.1178C185.544 78.6919 202.649 69.5488 221.271 65.8446C239.894 62.1404 259.196 64.0416 276.738 71.3076C294.279 78.5736 309.272 90.8781 319.821 106.665C330.37 122.452 336 141.013 336 160C335.971 185.452 325.847 209.853 307.85 227.85C289.853 245.847 265.452 255.971 240 256Z" fill="#DDEEFF"/>
</svg>
