<svg width="25" height="26" viewBox="0 0 25 26" fill="none" xmlns="http://www.w3.org/2000/svg">
<path d="M24.3335 4.63026C24.5419 4.42921 24.7081 4.18868 24.8225 3.92271C24.9369 3.65673 24.9972 3.37063 24.9998 3.08111C25.0025 2.79159 24.9475 2.50443 24.838 2.23641C24.7284 1.96838 24.5667 1.72485 24.362 1.52002C24.1574 1.31519 23.914 1.15316 23.6461 1.0434C23.3782 0.933637 23.091 0.878331 22.8015 0.88071C22.512 0.883088 22.2258 0.943104 21.9598 1.05725C21.6937 1.17141 21.453 1.33741 21.2517 1.54557L12.5123 10.2821L3.77573 1.54557C3.5761 1.33134 3.33537 1.15951 3.0679 1.04033C2.80043 0.921151 2.51169 0.857068 2.21891 0.851902C1.92613 0.846736 1.63531 0.900594 1.3638 1.01026C1.09229 1.11993 0.845652 1.28316 0.638595 1.49022C0.431538 1.69728 0.268306 1.94391 0.158639 2.21543C0.0489707 2.48694 -0.00488741 2.77776 0.000278309 3.07053C0.00544403 3.36331 0.0695276 3.65205 0.188705 3.91952C0.307883 4.187 0.479713 4.42773 0.693945 4.62735L9.42469 13.3668L0.688131 22.1034C0.302967 22.5167 0.0932794 23.0634 0.103246 23.6283C0.113213 24.1932 0.342057 24.7322 0.741563 25.1317C1.14107 25.5312 1.68005 25.7601 2.24495 25.77C2.80984 25.78 3.35656 25.5703 3.76991 25.1852L12.5123 16.4486L21.2488 25.1881C21.6622 25.5732 22.2089 25.7829 22.7738 25.7729C23.3387 25.763 23.8777 25.5341 24.2772 25.1346C24.6767 24.7351 24.9055 24.1961 24.9155 23.6312C24.9255 23.0663 24.7158 22.5196 24.3306 22.1063L15.5999 13.3668L24.3335 4.63026Z" fill="#DDEEFF"/>
</svg>
